<svg width="25" height="23" viewBox="0 0 25 23" fill="none" xmlns="http://www.w3.org/2000/svg">
<path d="M1.5 1H5.5L8.18 14.39C8.27144 14.8504 8.52191 15.264 8.88755 15.5583C9.25318 15.8526 9.7107 16.009 10.18 16L20.2224 14.2257C20.9995 14.0884 21.6233 13.5069 21.8147 12.7413L23.5 6H6.50075M19.5 20.5C19.5 21.3284 18.8284 22 18 22C17.1716 22 16.5 21.3284 16.5 20.5C16.5 19.6716 17.1716 19 18 19C18.8284 19 19.5 19.6716 19.5 20.5ZM8.5 20.5C8.5 21.3284 7.82843 22 7 22C6.17157 22 5.5 21.3284 5.5 20.5C5.5 19.6716 6.17157 19 7 19C7.82843 19 8.5 19.6716 8.5 20.5Z" stroke="#919191" stroke-width="2" stroke-linecap="round" stroke-linejoin="round"/>
</svg>
